<mxfile host="app.diagrams.net" modified="2021-11-07T12:03:43.418Z" agent="5.0 (Windows NT 10.0; Win64; x64) AppleWebKit/537.36 (KHTML, like Gecko) Chrome/95.0.4638.69 Safari/537.36" etag="z67VQQp41dAjAMVNAPDb" version="15.7.0" type="github">
  <diagram id="uCDdQjk0BrddMHb4fYi_" name="Page-1">
    <mxGraphModel dx="1774" dy="963" grid="0" gridSize="10" guides="1" tooltips="1" connect="1" arrows="1" fold="1" page="0" pageScale="1" pageWidth="827" pageHeight="1169" math="0" shadow="0">
      <root>
        <mxCell id="0" />
        <mxCell id="1" parent="0" />
        <mxCell id="com_AFfEcHS4AuDgLjKk-6" value="" style="rounded=0;whiteSpace=wrap;html=1;fillColor=#d5e8d4;strokeColor=#82b366;" parent="1" vertex="1">
          <mxGeometry x="45" y="141" width="120" height="60" as="geometry" />
        </mxCell>
        <mxCell id="com_AFfEcHS4AuDgLjKk-7" value="" style="rounded=0;whiteSpace=wrap;html=1;fillColor=#d5e8d4;strokeColor=#82b366;" parent="1" vertex="1">
          <mxGeometry x="55" y="151" width="120" height="60" as="geometry" />
        </mxCell>
        <mxCell id="com_AFfEcHS4AuDgLjKk-8" value="" style="rounded=0;whiteSpace=wrap;html=1;fillColor=#d5e8d4;strokeColor=#82b366;" parent="1" vertex="1">
          <mxGeometry x="65" y="161" width="120" height="60" as="geometry" />
        </mxCell>
        <mxCell id="com_AFfEcHS4AuDgLjKk-11" style="edgeStyle=orthogonalEdgeStyle;rounded=0;orthogonalLoop=1;jettySize=auto;html=1;" parent="1" source="com_AFfEcHS4AuDgLjKk-9" target="com_AFfEcHS4AuDgLjKk-10" edge="1">
          <mxGeometry relative="1" as="geometry" />
        </mxCell>
        <mxCell id="com_AFfEcHS4AuDgLjKk-9" value="&lt;font style=&quot;font-size: 12px&quot;&gt;[shard-001.tar, &lt;br&gt;shard-002.tar,&lt;br&gt;shard-003.tar,&lt;br&gt;shard-004.tar]&lt;/font&gt;" style="rounded=0;whiteSpace=wrap;html=1;fillColor=#d5e8d4;strokeColor=#82b366;" parent="1" vertex="1">
          <mxGeometry x="75" y="171" width="120" height="60" as="geometry" />
        </mxCell>
        <mxCell id="com_AFfEcHS4AuDgLjKk-23" style="edgeStyle=orthogonalEdgeStyle;rounded=0;orthogonalLoop=1;jettySize=auto;html=1;entryX=0;entryY=0.25;entryDx=0;entryDy=0;" parent="1" source="com_AFfEcHS4AuDgLjKk-10" target="com_AFfEcHS4AuDgLjKk-21" edge="1">
          <mxGeometry relative="1" as="geometry">
            <Array as="points">
              <mxPoint x="636" y="201" />
              <mxPoint x="636" y="278" />
            </Array>
          </mxGeometry>
        </mxCell>
        <mxCell id="com_AFfEcHS4AuDgLjKk-10" value="[shard-001.tar,&lt;br&gt;shard-002.tar]" style="rounded=0;whiteSpace=wrap;html=1;fillColor=#dae8fc;strokeColor=#6c8ebf;" parent="1" vertex="1">
          <mxGeometry x="369" y="171" width="120" height="60" as="geometry" />
        </mxCell>
        <mxCell id="com_AFfEcHS4AuDgLjKk-12" value="Distributed Partition" style="text;html=1;strokeColor=none;fillColor=none;align=center;verticalAlign=middle;whiteSpace=wrap;rounded=0;fontStyle=1" parent="1" vertex="1">
          <mxGeometry x="204" y="178" width="156" height="20" as="geometry" />
        </mxCell>
        <mxCell id="com_AFfEcHS4AuDgLjKk-24" style="edgeStyle=orthogonalEdgeStyle;rounded=0;orthogonalLoop=1;jettySize=auto;html=1;entryX=0;entryY=0.75;entryDx=0;entryDy=0;" parent="1" source="com_AFfEcHS4AuDgLjKk-14" target="com_AFfEcHS4AuDgLjKk-21" edge="1">
          <mxGeometry relative="1" as="geometry">
            <Array as="points">
              <mxPoint x="635" y="395" />
              <mxPoint x="635" y="308" />
            </Array>
          </mxGeometry>
        </mxCell>
        <mxCell id="com_AFfEcHS4AuDgLjKk-14" value="[(0.wav, 0.txt),&lt;br&gt;(2.wav, 2.txt)]" style="rounded=0;whiteSpace=wrap;html=1;fillColor=#dae8fc;strokeColor=#6c8ebf;" parent="1" vertex="1">
          <mxGeometry x="369" y="360" width="120" height="60" as="geometry" />
        </mxCell>
        <mxCell id="com_AFfEcHS4AuDgLjKk-15" value="" style="rounded=0;whiteSpace=wrap;html=1;fillColor=#d5e8d4;strokeColor=#82b366;" parent="1" vertex="1">
          <mxGeometry x="45" y="330" width="120" height="60" as="geometry" />
        </mxCell>
        <mxCell id="com_AFfEcHS4AuDgLjKk-16" value="" style="rounded=0;whiteSpace=wrap;html=1;fillColor=#d5e8d4;strokeColor=#82b366;" parent="1" vertex="1">
          <mxGeometry x="55" y="340" width="120" height="60" as="geometry" />
        </mxCell>
        <mxCell id="com_AFfEcHS4AuDgLjKk-17" value="" style="rounded=0;whiteSpace=wrap;html=1;fillColor=#d5e8d4;strokeColor=#82b366;" parent="1" vertex="1">
          <mxGeometry x="65" y="350" width="120" height="60" as="geometry" />
        </mxCell>
        <mxCell id="com_AFfEcHS4AuDgLjKk-19" style="edgeStyle=orthogonalEdgeStyle;rounded=0;orthogonalLoop=1;jettySize=auto;html=1;" parent="1" source="com_AFfEcHS4AuDgLjKk-18" edge="1">
          <mxGeometry relative="1" as="geometry">
            <mxPoint x="366" y="390" as="targetPoint" />
          </mxGeometry>
        </mxCell>
        <mxCell id="com_AFfEcHS4AuDgLjKk-18" value="&lt;font style=&quot;font-size: 12px&quot;&gt;[(0.wav, 0.txt),&lt;br&gt;(1.wav, 1.txt),&lt;br&gt;(2.wav, 2.txt),&lt;br&gt;(3.wav, 3.txt)]&lt;/font&gt;" style="rounded=0;whiteSpace=wrap;html=1;fillColor=#d5e8d4;strokeColor=#82b366;" parent="1" vertex="1">
          <mxGeometry x="75" y="360" width="120" height="60" as="geometry" />
        </mxCell>
        <mxCell id="com_AFfEcHS4AuDgLjKk-20" value="Distributed Partition" style="text;html=1;strokeColor=none;fillColor=none;align=center;verticalAlign=middle;whiteSpace=wrap;rounded=0;fontStyle=1" parent="1" vertex="1">
          <mxGeometry x="204" y="365" width="156" height="20" as="geometry" />
        </mxCell>
        <mxCell id="com_AFfEcHS4AuDgLjKk-39" style="edgeStyle=orthogonalEdgeStyle;rounded=0;orthogonalLoop=1;jettySize=auto;html=1;" parent="1" source="com_AFfEcHS4AuDgLjKk-21" target="com_AFfEcHS4AuDgLjKk-33" edge="1">
          <mxGeometry relative="1" as="geometry" />
        </mxCell>
        <mxCell id="com_AFfEcHS4AuDgLjKk-21" value="[{&quot;key&quot;: 0, &quot;text&quot;: text0, &quot;wav&quot;:tensor0, &quot;sample_rate&quot;: 16000},&lt;br&gt;{&quot;key&quot;: 2, &quot;text&quot;: text2, &quot;wav&quot;: tensor2, &quot;sample_rate&quot;: 16000}]" style="rounded=0;whiteSpace=wrap;html=1;fillColor=#fff2cc;strokeColor=#d6b656;" parent="1" vertex="1">
          <mxGeometry x="670" y="263" width="367" height="60" as="geometry" />
        </mxCell>
        <mxCell id="com_AFfEcHS4AuDgLjKk-25" value="UnTar" style="text;html=1;strokeColor=none;fillColor=none;align=center;verticalAlign=middle;whiteSpace=wrap;rounded=0;fontStyle=1" parent="1" vertex="1">
          <mxGeometry x="484" y="181" width="156" height="20" as="geometry" />
        </mxCell>
        <mxCell id="com_AFfEcHS4AuDgLjKk-26" value="Read From Local Disk" style="text;html=1;strokeColor=none;fillColor=none;align=center;verticalAlign=middle;whiteSpace=wrap;rounded=0;fontStyle=1" parent="1" vertex="1">
          <mxGeometry x="484" y="374" width="156" height="20" as="geometry" />
        </mxCell>
        <mxCell id="com_AFfEcHS4AuDgLjKk-48" style="edgeStyle=orthogonalEdgeStyle;rounded=0;orthogonalLoop=1;jettySize=auto;html=1;entryX=1;entryY=0.5;entryDx=0;entryDy=0;" parent="1" source="com_AFfEcHS4AuDgLjKk-33" target="com_AFfEcHS4AuDgLjKk-41" edge="1">
          <mxGeometry relative="1" as="geometry" />
        </mxCell>
        <mxCell id="com_AFfEcHS4AuDgLjKk-33" value="[{&quot;key&quot;: 0, &quot;text&quot;: text0, &quot;wav&quot;:tensor0, &quot;sample_rate&quot;: 16000, &lt;b&gt;&lt;font color=&quot;#ff0000&quot;&gt;&quot;label&quot;:[ 8, 5]&lt;/font&gt;&lt;/b&gt;},&lt;br&gt;{&quot;key&quot;: 2, &quot;text&quot;: text2, &quot;wav&quot;: tensor2, &quot;sample_rate&quot;: 16000, &lt;b&gt;&lt;font color=&quot;#ff0000&quot;&gt;&quot;label&quot;:[2, 6]}&lt;/font&gt;&lt;/b&gt;]" style="rounded=0;whiteSpace=wrap;html=1;fillColor=#ffe6cc;strokeColor=#d79b00;" parent="1" vertex="1">
          <mxGeometry x="637" y="561" width="433" height="60" as="geometry" />
        </mxCell>
        <mxCell id="com_AFfEcHS4AuDgLjKk-35" value="tokenize" style="text;html=1;strokeColor=none;fillColor=none;align=center;verticalAlign=middle;whiteSpace=wrap;rounded=0;fontStyle=1" parent="1" vertex="1">
          <mxGeometry x="756" y="438" width="111" height="20" as="geometry" />
        </mxCell>
        <mxCell id="com_AFfEcHS4AuDgLjKk-49" style="edgeStyle=orthogonalEdgeStyle;rounded=0;orthogonalLoop=1;jettySize=auto;html=1;" parent="1" source="com_AFfEcHS4AuDgLjKk-41" edge="1">
          <mxGeometry relative="1" as="geometry">
            <mxPoint x="163" y="591" as="targetPoint" />
          </mxGeometry>
        </mxCell>
        <mxCell id="com_AFfEcHS4AuDgLjKk-41" value="&lt;b&gt;&lt;font color=&quot;#ff0000&quot;&gt;same&lt;/font&gt;&lt;/b&gt;" style="rounded=0;whiteSpace=wrap;html=1;fillColor=#ffe6cc;strokeColor=#d79b00;" parent="1" vertex="1">
          <mxGeometry x="321" y="561" width="116.5" height="60" as="geometry" />
        </mxCell>
        <mxCell id="com_AFfEcHS4AuDgLjKk-46" value="filter" style="text;html=1;strokeColor=none;fillColor=none;align=center;verticalAlign=middle;whiteSpace=wrap;rounded=0;fontStyle=1" parent="1" vertex="1">
          <mxGeometry x="489" y="569" width="96" height="20" as="geometry" />
        </mxCell>
        <mxCell id="com_AFfEcHS4AuDgLjKk-52" style="edgeStyle=orthogonalEdgeStyle;rounded=0;orthogonalLoop=1;jettySize=auto;html=1;entryX=0.25;entryY=0;entryDx=0;entryDy=0;" parent="1" source="com_AFfEcHS4AuDgLjKk-47" target="com_AFfEcHS4AuDgLjKk-51" edge="1">
          <mxGeometry relative="1" as="geometry" />
        </mxCell>
        <mxCell id="com_AFfEcHS4AuDgLjKk-47" value="&lt;font color=&quot;#ff0000&quot;&gt;same&lt;/font&gt;" style="rounded=0;whiteSpace=wrap;html=1;fillColor=#ffe6cc;strokeColor=#d79b00;" parent="1" vertex="1">
          <mxGeometry x="45" y="561" width="116.5" height="60" as="geometry" />
        </mxCell>
        <mxCell id="com_AFfEcHS4AuDgLjKk-50" value="resample" style="text;html=1;strokeColor=none;fillColor=none;align=center;verticalAlign=middle;whiteSpace=wrap;rounded=0;fontStyle=1" parent="1" vertex="1">
          <mxGeometry x="188" y="567" width="96" height="20" as="geometry" />
        </mxCell>
        <mxCell id="com_AFfEcHS4AuDgLjKk-56" style="edgeStyle=orthogonalEdgeStyle;rounded=0;orthogonalLoop=1;jettySize=auto;html=1;entryX=0;entryY=0.5;entryDx=0;entryDy=0;" parent="1" source="com_AFfEcHS4AuDgLjKk-51" target="com_AFfEcHS4AuDgLjKk-54" edge="1">
          <mxGeometry relative="1" as="geometry" />
        </mxCell>
        <mxCell id="com_AFfEcHS4AuDgLjKk-51" value="[{&quot;key&quot;: 0,&amp;nbsp; &quot;feat&quot;:tensor0,&amp;nbsp;&lt;b&gt;&lt;font color=&quot;#ff0000&quot;&gt;&quot;label&quot;:[ 8, 5]&lt;/font&gt;&lt;/b&gt;},&lt;br&gt;{&quot;key&quot;: 2,&amp;nbsp; &quot;feat&quot;: tensor2,&amp;nbsp;&amp;nbsp;&lt;b&gt;&lt;font color=&quot;#ff0000&quot;&gt;&quot;label&quot;:[2, 6]}&lt;/font&gt;&lt;/b&gt;]" style="rounded=0;whiteSpace=wrap;html=1;fillColor=#e1d5e7;strokeColor=#9673a6;" parent="1" vertex="1">
          <mxGeometry x="47" y="754" width="228" height="60" as="geometry" />
        </mxCell>
        <mxCell id="com_AFfEcHS4AuDgLjKk-53" value="compute_fbank" style="text;html=1;strokeColor=none;fillColor=none;align=center;verticalAlign=middle;whiteSpace=wrap;rounded=0;fontStyle=1" parent="1" vertex="1">
          <mxGeometry x="104" y="666" width="96" height="20" as="geometry" />
        </mxCell>
        <mxCell id="com_AFfEcHS4AuDgLjKk-64" style="edgeStyle=orthogonalEdgeStyle;rounded=0;orthogonalLoop=1;jettySize=auto;html=1;entryX=0;entryY=0.5;entryDx=0;entryDy=0;" parent="1" source="com_AFfEcHS4AuDgLjKk-54" target="com_AFfEcHS4AuDgLjKk-61" edge="1">
          <mxGeometry relative="1" as="geometry" />
        </mxCell>
        <mxCell id="com_AFfEcHS4AuDgLjKk-54" value="&lt;b&gt;&lt;font color=&quot;#ff0000&quot;&gt;same&lt;/font&gt;&lt;/b&gt;" style="rounded=0;whiteSpace=wrap;html=1;fillColor=#e1d5e7;strokeColor=#9673a6;" parent="1" vertex="1">
          <mxGeometry x="419" y="754" width="103" height="60" as="geometry" />
        </mxCell>
        <mxCell id="com_AFfEcHS4AuDgLjKk-58" value="spec_augmentation" style="text;html=1;strokeColor=none;fillColor=none;align=center;verticalAlign=middle;whiteSpace=wrap;rounded=0;fontStyle=1" parent="1" vertex="1">
          <mxGeometry x="299" y="757" width="96" height="20" as="geometry" />
        </mxCell>
        <mxCell id="com_AFfEcHS4AuDgLjKk-59" value="shuffle" style="text;html=1;strokeColor=none;fillColor=none;align=center;verticalAlign=middle;whiteSpace=wrap;rounded=0;fontStyle=1" parent="1" vertex="1">
          <mxGeometry x="544" y="757" width="96" height="20" as="geometry" />
        </mxCell>
        <mxCell id="com_AFfEcHS4AuDgLjKk-66" style="edgeStyle=orthogonalEdgeStyle;rounded=0;orthogonalLoop=1;jettySize=auto;html=1;" parent="1" source="com_AFfEcHS4AuDgLjKk-61" target="com_AFfEcHS4AuDgLjKk-62" edge="1">
          <mxGeometry relative="1" as="geometry" />
        </mxCell>
        <mxCell id="com_AFfEcHS4AuDgLjKk-61" value="&lt;font color=&quot;#ff0000&quot;&gt;&lt;b&gt;same&lt;/b&gt;&lt;/font&gt;" style="rounded=0;whiteSpace=wrap;html=1;fillColor=#e1d5e7;strokeColor=#9673a6;" parent="1" vertex="1">
          <mxGeometry x="649" y="754" width="103" height="60" as="geometry" />
        </mxCell>
        <mxCell id="com_AFfEcHS4AuDgLjKk-69" style="edgeStyle=orthogonalEdgeStyle;rounded=0;orthogonalLoop=1;jettySize=auto;html=1;entryX=0;entryY=0.5;entryDx=0;entryDy=0;" parent="1" source="com_AFfEcHS4AuDgLjKk-62" target="com_AFfEcHS4AuDgLjKk-68" edge="1">
          <mxGeometry relative="1" as="geometry" />
        </mxCell>
        <mxCell id="com_AFfEcHS4AuDgLjKk-62" value="&lt;b&gt;&lt;font color=&quot;#ff0000&quot;&gt;same&lt;/font&gt;&lt;/b&gt;" style="rounded=0;whiteSpace=wrap;html=1;fillColor=#e1d5e7;strokeColor=#9673a6;" parent="1" vertex="1">
          <mxGeometry x="867" y="754" width="103" height="60" as="geometry" />
        </mxCell>
        <mxCell id="com_AFfEcHS4AuDgLjKk-63" style="edgeStyle=orthogonalEdgeStyle;rounded=0;orthogonalLoop=1;jettySize=auto;html=1;exitX=0.5;exitY=1;exitDx=0;exitDy=0;" parent="1" source="com_AFfEcHS4AuDgLjKk-58" target="com_AFfEcHS4AuDgLjKk-58" edge="1">
          <mxGeometry relative="1" as="geometry" />
        </mxCell>
        <mxCell id="com_AFfEcHS4AuDgLjKk-67" value="sort" style="text;html=1;strokeColor=none;fillColor=none;align=center;verticalAlign=middle;whiteSpace=wrap;rounded=0;fontStyle=1" parent="1" vertex="1">
          <mxGeometry x="765" y="757" width="96" height="20" as="geometry" />
        </mxCell>
        <mxCell id="com_AFfEcHS4AuDgLjKk-72" style="edgeStyle=orthogonalEdgeStyle;rounded=0;orthogonalLoop=1;jettySize=auto;html=1;entryX=0.5;entryY=1;entryDx=0;entryDy=0;" parent="1" source="com_AFfEcHS4AuDgLjKk-68" target="com_AFfEcHS4AuDgLjKk-71" edge="1">
          <mxGeometry relative="1" as="geometry" />
        </mxCell>
        <mxCell id="com_AFfEcHS4AuDgLjKk-68" value="list" style="rounded=0;whiteSpace=wrap;html=1;fillColor=#f8cecc;strokeColor=#b85450;" parent="1" vertex="1">
          <mxGeometry x="1253" y="754" width="263" height="60" as="geometry" />
        </mxCell>
        <mxCell id="com_AFfEcHS4AuDgLjKk-70" value="batch" style="text;html=1;strokeColor=none;fillColor=none;align=center;verticalAlign=middle;whiteSpace=wrap;rounded=0;fontStyle=1" parent="1" vertex="1">
          <mxGeometry x="1064" y="757" width="96" height="20" as="geometry" />
        </mxCell>
        <mxCell id="com_AFfEcHS4AuDgLjKk-71" value="Training Batch&lt;br&gt;(keys, feats, labels, feats_length, label_length)" style="rounded=0;whiteSpace=wrap;html=1;fillColor=#d5e8d4;strokeColor=#82b366;" parent="1" vertex="1">
          <mxGeometry x="1253" y="295" width="263" height="165" as="geometry" />
        </mxCell>
        <mxCell id="com_AFfEcHS4AuDgLjKk-73" value="padding" style="text;html=1;strokeColor=none;fillColor=none;align=center;verticalAlign=middle;whiteSpace=wrap;rounded=0;fontStyle=1" parent="1" vertex="1">
          <mxGeometry x="1278" y="593" width="96" height="20" as="geometry" />
        </mxCell>
        <mxCell id="HCkGK9VtK9lN52CQDYq6-1" value="(decode to char/BPE)" style="text;html=1;strokeColor=none;fillColor=none;align=center;verticalAlign=middle;whiteSpace=wrap;rounded=0;" vertex="1" parent="1">
          <mxGeometry x="867" y="437" width="131" height="30" as="geometry" />
        </mxCell>
      </root>
    </mxGraphModel>
  </diagram>
</mxfile>
